<svg width="880" height="300" viewBox="0 0 880 300" xmlns="http://www.w3.org/2000/svg" role="img" aria-label="Socrate, building Walyverse">
<style>
  .tw { animation: tw 3.4s ease-in-out infinite; }
  @keyframes tw { 0%,100% { opacity:.12 } 50% { opacity:.85 } }
  .fl { animation: fl 6s ease-in-out infinite; }
  @keyframes fl { 0%,100% { transform: translateY(0) } 50% { transform: translateY(-5px) } }
  .sub { font: 500 15px ui-monospace, 'Cascadia Code', Consolas, monospace; }
</style>
<defs>
  <linearGradient id="sky" x1="0" y1="0" x2="0" y2="1">
    <stop offset="0" stop-color="#16102e"/>
    <stop offset=".5" stop-color="#472357"/>
    <stop offset=".78" stop-color="#a34a5e"/>
    <stop offset="1" stop-color="#ffb26b"/>
  </linearGradient>
  <linearGradient id="sea" x1="0" y1="0" x2="0" y2="1">
    <stop offset="0" stop-color="#0d4a63"/>
    <stop offset="1" stop-color="#0a2f45"/>
  </linearGradient>
  <clipPath id="card"><rect width="880" height="300" rx="12"/></clipPath>
  <clipPath id="abovewater"><rect width="880" height="236"/></clipPath>
</defs>
<g clip-path="url(#card)">
<rect x="0" y="0" width="880" height="190" fill="url(#sky)" />
<rect x="0" y="190" width="880" height="62" fill="url(#sea)" />
<rect x="0" y="252" width="880" height="48" fill="#e0c08f" />
<rect x="584" y="184" width="72" height="6" fill="#ffe9ad" />
<rect x="584" y="178" width="72" height="6" fill="#ffe9ad" />
<rect x="584" y="172" width="72" height="6" fill="#ffd97a" />
<rect x="590" y="166" width="60" height="6" fill="#ffd97a" />
<rect x="590" y="160" width="60" height="6" fill="#ffd97a" />
<rect x="596" y="154" width="48" height="6" fill="#ffd97a" />
<circle cx="620" cy="190" r="72" fill="#ffd97a" opacity=".14"/>
<rect x="60" y="34" width="3" height="3" fill="#f5e6d0" class="tw" style="animation-delay:0.0s" opacity=".5"/>
<rect x="150" y="62" width="3" height="3" fill="#f5e6d0" class="tw" style="animation-delay:1.2s" opacity=".5"/>
<rect x="238" y="28" width="3" height="3" fill="#f5e6d0" class="tw" style="animation-delay:2.1s" opacity=".5"/>
<rect x="322" y="52" width="3" height="3" fill="#f5e6d0" class="tw" style="animation-delay:0.6s" opacity=".5"/>
<rect x="410" y="24" width="3" height="3" fill="#f5e6d0" class="tw" style="animation-delay:1.8s" opacity=".5"/>
<rect x="472" y="66" width="3" height="3" fill="#f5e6d0" class="tw" style="animation-delay:2.6s" opacity=".5"/>
<rect x="540" y="38" width="3" height="3" fill="#f5e6d0" class="tw" style="animation-delay:0.3s" opacity=".5"/>
<rect x="610" y="20" width="3" height="3" fill="#f5e6d0" class="tw" style="animation-delay:1.5s" opacity=".5"/>
<rect x="688" y="46" width="3" height="3" fill="#f5e6d0" class="tw" style="animation-delay:2.3s" opacity=".5"/>
<rect x="764" y="26" width="3" height="3" fill="#f5e6d0" class="tw" style="animation-delay:0.9s" opacity=".5"/>
<rect x="826" y="58" width="3" height="3" fill="#f5e6d0" class="tw" style="animation-delay:1.1s" opacity=".5"/>
<rect x="108" y="88" width="3" height="3" fill="#f5e6d0" class="tw" style="animation-delay:2.8s" opacity=".5"/>
<g transform="translate(392,74)" class="fl" style="animation-delay:0.0s" opacity=".7"><rect x="0" y="3" width="4" height="3" fill="#2a1a2e" /><rect x="4" y="0" width="4" height="3" fill="#2a1a2e" /><rect x="8" y="3" width="4" height="3" fill="#2a1a2e" /></g>
<g transform="translate(438,58)" class="fl" style="animation-delay:1.6s" opacity=".7"><rect x="0" y="3" width="4" height="3" fill="#2a1a2e" /><rect x="4" y="0" width="4" height="3" fill="#2a1a2e" /><rect x="8" y="3" width="4" height="3" fill="#2a1a2e" /></g>
<rect x="110" y="208" width="6" height="3" fill="#7fd4c1" class="tw" style="animation-delay:0.4s" opacity=".4"/>
<rect x="190" y="226" width="6" height="3" fill="#7fd4c1" class="tw" style="animation-delay:1.6s" opacity=".4"/>
<rect x="262" y="214" width="6" height="3" fill="#7fd4c1" class="tw" style="animation-delay:2.4s" opacity=".4"/>
<rect x="348" y="232" width="6" height="3" fill="#7fd4c1" class="tw" style="animation-delay:0.9s" opacity=".4"/>
<rect x="430" y="210" width="6" height="3" fill="#7fd4c1" class="tw" style="animation-delay:1.9s" opacity=".4"/>
<rect x="500" y="238" width="6" height="3" fill="#7fd4c1" class="tw" style="animation-delay:0.2s" opacity=".4"/>
<rect x="560" y="218" width="6" height="3" fill="#7fd4c1" class="tw" style="animation-delay:1.2s" opacity=".4"/>
<rect x="598" y="204" width="6" height="3" fill="#ffcf8a" class="tw" style="animation-delay:0.7s" opacity=".4"/>
<rect x="614" y="222" width="6" height="3" fill="#ffcf8a" class="tw" style="animation-delay:1.4s" opacity=".4"/>
<rect x="632" y="210" width="6" height="3" fill="#ffcf8a" class="tw" style="animation-delay:2.1s" opacity=".4"/>
<rect x="648" y="236" width="6" height="3" fill="#ffcf8a" class="tw" style="animation-delay:0.5s" opacity=".4"/>
<rect x="664" y="216" width="6" height="3" fill="#ffcf8a" class="tw" style="animation-delay:1.8s" opacity=".4"/>
<rect x="735" y="230" width="6" height="3" fill="#7fd4c1" class="tw" style="animation-delay:2.7s" opacity=".4"/>
<rect x="60" y="240" width="6" height="3" fill="#7fd4c1" class="tw" style="animation-delay:1.0s" opacity=".4"/>
<rect x="300" y="244" width="6" height="3" fill="#7fd4c1" class="tw" style="animation-delay:2.0s" opacity=".4"/>
<rect x="0" y="249" width="14" height="3" fill="#f6e7c8" opacity=".8"/>
<rect x="22" y="249" width="14" height="3" fill="#f6e7c8" opacity=".8"/>
<rect x="66" y="249" width="14" height="3" fill="#f6e7c8" opacity=".8"/>
<rect x="88" y="249" width="14" height="3" fill="#f6e7c8" opacity=".8"/>
<rect x="132" y="249" width="14" height="3" fill="#f6e7c8" opacity=".8"/>
<rect x="154" y="249" width="14" height="3" fill="#f6e7c8" opacity=".8"/>
<rect x="198" y="249" width="14" height="3" fill="#f6e7c8" opacity=".8"/>
<rect x="242" y="249" width="14" height="3" fill="#f6e7c8" opacity=".8"/>
<rect x="264" y="249" width="14" height="3" fill="#f6e7c8" opacity=".8"/>
<rect x="308" y="249" width="14" height="3" fill="#f6e7c8" opacity=".8"/>
<rect x="330" y="249" width="14" height="3" fill="#f6e7c8" opacity=".8"/>
<rect x="374" y="249" width="14" height="3" fill="#f6e7c8" opacity=".8"/>
<rect x="396" y="249" width="14" height="3" fill="#f6e7c8" opacity=".8"/>
<rect x="440" y="249" width="14" height="3" fill="#f6e7c8" opacity=".8"/>
<rect x="484" y="249" width="14" height="3" fill="#f6e7c8" opacity=".8"/>
<rect x="506" y="249" width="14" height="3" fill="#f6e7c8" opacity=".8"/>
<rect x="550" y="249" width="14" height="3" fill="#f6e7c8" opacity=".8"/>
<rect x="572" y="249" width="14" height="3" fill="#f6e7c8" opacity=".8"/>
<rect x="616" y="249" width="14" height="3" fill="#f6e7c8" opacity=".8"/>
<rect x="638" y="249" width="14" height="3" fill="#f6e7c8" opacity=".8"/>
<rect x="660" y="249" width="14" height="3" fill="#f6e7c8" opacity=".8"/>
<rect x="682" y="249" width="14" height="3" fill="#f6e7c8" opacity=".8"/>
<rect x="726" y="249" width="14" height="3" fill="#f6e7c8" opacity=".8"/>
<rect x="748" y="249" width="14" height="3" fill="#f6e7c8" opacity=".8"/>
<rect x="792" y="249" width="14" height="3" fill="#f6e7c8" opacity=".8"/>
<rect x="814" y="249" width="14" height="3" fill="#f6e7c8" opacity=".8"/>
<rect x="858" y="249" width="14" height="3" fill="#f6e7c8" opacity=".8"/>
<rect x="0" y="252" width="880" height="7" fill="#c39b70" opacity=".55"/>
<rect x="43" y="266" width="5" height="3" fill="#cda878" opacity=".7"/>
<rect x="180" y="275" width="5" height="3" fill="#cda878" opacity=".7"/>
<rect x="317" y="284" width="5" height="3" fill="#cda878" opacity=".7"/>
<rect x="454" y="267" width="5" height="3" fill="#cda878" opacity=".7"/>
<rect x="591" y="276" width="5" height="3" fill="#cda878" opacity=".7"/>
<rect x="728" y="285" width="5" height="3" fill="#cda878" opacity=".7"/>
<rect x="865" y="268" width="5" height="3" fill="#cda878" opacity=".7"/>
<rect x="132" y="277" width="5" height="3" fill="#cda878" opacity=".7"/>
<rect x="269" y="286" width="5" height="3" fill="#cda878" opacity=".7"/>
<rect x="406" y="269" width="5" height="3" fill="#cda878" opacity=".7"/>
<rect x="543" y="278" width="5" height="3" fill="#cda878" opacity=".7"/>
<rect x="680" y="287" width="5" height="3" fill="#cda878" opacity=".7"/>
<rect x="817" y="270" width="5" height="3" fill="#cda878" opacity=".7"/>
<rect x="84" y="279" width="5" height="3" fill="#cda878" opacity=".7"/>
<rect x="221" y="288" width="5" height="3" fill="#cda878" opacity=".7"/>
<rect x="358" y="271" width="5" height="3" fill="#cda878" opacity=".7"/>
<rect x="495" y="280" width="5" height="3" fill="#cda878" opacity=".7"/>
<rect x="632" y="289" width="5" height="3" fill="#cda878" opacity=".7"/>
<rect x="769" y="272" width="5" height="3" fill="#cda878" opacity=".7"/>
<rect x="36" y="281" width="5" height="3" fill="#cda878" opacity=".7"/>
<rect x="173" y="290" width="5" height="3" fill="#cda878" opacity=".7"/>
<rect x="310" y="273" width="5" height="3" fill="#cda878" opacity=".7"/>
<rect x="447" y="282" width="5" height="3" fill="#cda878" opacity=".7"/>
<rect x="584" y="291" width="5" height="3" fill="#cda878" opacity=".7"/>
<rect x="721" y="274" width="5" height="3" fill="#cda878" opacity=".7"/>
<rect x="858" y="283" width="5" height="3" fill="#cda878" opacity=".7"/>
<rect x="747" y="172" width="7" height="7" fill="#2ea061" />
<rect x="754" y="172" width="7" height="7" fill="#2ea061" />
<rect x="761" y="172" width="7" height="7" fill="#2ea061" />
<rect x="768" y="172" width="7" height="7" fill="#2ea061" />
<rect x="775" y="172" width="7" height="7" fill="#2ea061" />
<rect x="733" y="179" width="7" height="7" fill="#2ea061" />
<rect x="740" y="179" width="7" height="7" fill="#2ea061" />
<rect x="747" y="179" width="7" height="7" fill="#2ea061" />
<rect x="754" y="179" width="7" height="7" fill="#1f7a4d" />
<rect x="761" y="179" width="7" height="7" fill="#1f7a4d" />
<rect x="768" y="179" width="7" height="7" fill="#1f7a4d" />
<rect x="775" y="179" width="7" height="7" fill="#1f7a4d" />
<rect x="782" y="179" width="7" height="7" fill="#2ea061" />
<rect x="789" y="179" width="7" height="7" fill="#2ea061" />
<rect x="796" y="179" width="7" height="7" fill="#2ea061" />
<rect x="726" y="186" width="7" height="7" fill="#2ea061" />
<rect x="733" y="186" width="7" height="7" fill="#2ea061" />
<rect x="740" y="186" width="7" height="7" fill="#1f7a4d" />
<rect x="747" y="186" width="7" height="7" fill="#1f7a4d" />
<rect x="754" y="186" width="7" height="7" fill="#1f7a4d" />
<rect x="761" y="186" width="7" height="7" fill="#1f7a4d" />
<rect x="768" y="186" width="7" height="7" fill="#1f7a4d" />
<rect x="775" y="186" width="7" height="7" fill="#1f7a4d" />
<rect x="782" y="186" width="7" height="7" fill="#1f7a4d" />
<rect x="789" y="186" width="7" height="7" fill="#1f7a4d" />
<rect x="796" y="186" width="7" height="7" fill="#1f7a4d" />
<rect x="803" y="186" width="7" height="7" fill="#2ea061" />
<rect x="810" y="186" width="7" height="7" fill="#2ea061" />
<rect x="719" y="193" width="7" height="7" fill="#2ea061" />
<rect x="726" y="193" width="7" height="7" fill="#2ea061" />
<rect x="733" y="193" width="7" height="7" fill="#1f7a4d" />
<rect x="740" y="193" width="7" height="7" fill="#1f7a4d" />
<rect x="768" y="193" width="7" height="7" fill="#7a5238" />
<rect x="775" y="193" width="7" height="7" fill="#7a5238" />
<rect x="803" y="193" width="7" height="7" fill="#1f7a4d" />
<rect x="810" y="193" width="7" height="7" fill="#1f7a4d" />
<rect x="817" y="193" width="7" height="7" fill="#2ea061" />
<rect x="824" y="193" width="7" height="7" fill="#2ea061" />
<rect x="719" y="200" width="7" height="7" fill="#2ea061" />
<rect x="726" y="200" width="7" height="7" fill="#1f7a4d" />
<rect x="761" y="200" width="7" height="7" fill="#2ea061" />
<rect x="768" y="200" width="7" height="7" fill="#7a5238" />
<rect x="775" y="200" width="7" height="7" fill="#7a5238" />
<rect x="782" y="200" width="7" height="7" fill="#2ea061" />
<rect x="817" y="200" width="7" height="7" fill="#1f7a4d" />
<rect x="824" y="200" width="7" height="7" fill="#2ea061" />
<rect x="719" y="207" width="7" height="7" fill="#1f7a4d" />
<rect x="761" y="207" width="7" height="7" fill="#7a5238" />
<rect x="768" y="207" width="7" height="7" fill="#7a5238" />
<rect x="775" y="207" width="7" height="7" fill="#7a5238" />
<rect x="782" y="207" width="7" height="7" fill="#7a5238" />
<rect x="824" y="207" width="7" height="7" fill="#1f7a4d" />
<rect x="761" y="214" width="7" height="7" fill="#5c4330" />
<rect x="768" y="214" width="7" height="7" fill="#7a5238" />
<rect x="775" y="214" width="7" height="7" fill="#7a5238" />
<rect x="782" y="214" width="7" height="7" fill="#5c4330" />
<rect x="768" y="221" width="7" height="7" fill="#7a5238" />
<rect x="775" y="221" width="7" height="7" fill="#7a5238" />
<rect x="768" y="228" width="7" height="7" fill="#7a5238" />
<rect x="775" y="228" width="7" height="7" fill="#7a5238" />
<rect x="782" y="228" width="7" height="7" fill="#8f6244" />
<rect x="768" y="235" width="7" height="7" fill="#8f6244" />
<rect x="775" y="235" width="7" height="7" fill="#7a5238" />
<rect x="782" y="235" width="7" height="7" fill="#7a5238" />
<rect x="775" y="242" width="7" height="7" fill="#7a5238" />
<rect x="782" y="242" width="7" height="7" fill="#7a5238" />
<rect x="775" y="249" width="7" height="7" fill="#7a5238" />
<rect x="782" y="249" width="7" height="7" fill="#7a5238" />
<rect x="789" y="249" width="7" height="7" fill="#8f6244" />
<rect x="782" y="256" width="7" height="7" fill="#7a5238" />
<rect x="789" y="256" width="7" height="7" fill="#7a5238" />
<rect x="782" y="263" width="7" height="7" fill="#7a5238" />
<rect x="789" y="263" width="7" height="7" fill="#7a5238" />
<rect x="775" y="270" width="7" height="7" fill="#8f6244" />
<rect x="782" y="270" width="7" height="7" fill="#7a5238" />
<rect x="789" y="270" width="7" height="7" fill="#7a5238" />
<rect x="775" y="277" width="7" height="7" fill="#7a5238" />
<rect x="782" y="277" width="7" height="7" fill="#7a5238" />
<g clip-path="url(#abovewater)"><rect x="570" y="212" width="5" height="5" fill="#1d1208" /><rect x="575" y="212" width="5" height="5" fill="#1d1208" /><rect x="580" y="212" width="5" height="5" fill="#1d1208" /><rect x="585" y="212" width="5" height="5" fill="#1d1208" /><rect x="590" y="212" width="5" height="5" fill="#1d1208" /><rect x="595" y="212" width="5" height="5" fill="#1d1208" /><rect x="600" y="212" width="5" height="5" fill="#1d1208" /><rect x="605" y="212" width="5" height="5" fill="#1d1208" /><rect x="610" y="212" width="5" height="5" fill="#1d1208" /><rect x="615" y="212" width="5" height="5" fill="#1d1208" /><rect x="620" y="212" width="5" height="5" fill="#1d1208" /><rect x="625" y="212" width="5" height="5" fill="#1d1208" /><rect x="630" y="212" width="5" height="5" fill="#1d1208" /><rect x="635" y="212" width="5" height="5" fill="#1d1208" /><rect x="565" y="217" width="5" height="5" fill="#1d1208" /><rect x="570" y="217" width="5" height="5" fill="#ecd2ab" /><rect x="575" y="217" width="5" height="5" fill="#ecd2ab" /><rect x="580" y="217" width="5" height="5" fill="#ecd2ab" /><rect x="585" y="217" width="5" height="5" fill="#ecd2ab" /><rect x="590" y="217" width="5" height="5" fill="#ecd2ab" /><rect x="595" y="217" width="5" height="5" fill="#ecd2ab" /><rect x="600" y="217" width="5" height="5" fill="#ecd2ab" /><rect x="605" y="217" width="5" height="5" fill="#ecd2ab" /><rect x="610" y="217" width="5" height="5" fill="#ecd2ab" /><rect x="615" y="217" width="5" height="5" fill="#ecd2ab" /><rect x="620" y="217" width="5" height="5" fill="#ecd2ab" /><rect x="625" y="217" width="5" height="5" fill="#ecd2ab" /><rect x="630" y="217" width="5" height="5" fill="#ecd2ab" /><rect x="635" y="217" width="5" height="5" fill="#ecd2ab" /><rect x="640" y="217" width="5" height="5" fill="#1d1208" /><rect x="560" y="222" width="5" height="5" fill="#1d1208" /><rect x="565" y="222" width="5" height="5" fill="#96653c" /><rect x="570" y="222" width="5" height="5" fill="#ecd2ab" /><rect x="575" y="222" width="5" height="5" fill="#ecd2ab" /><rect x="580" y="222" width="5" height="5" fill="#ecd2ab" /><rect x="585" y="222" width="5" height="5" fill="#ecd2ab" /><rect x="590" y="222" width="5" height="5" fill="#ecd2ab" /><rect x="595" y="222" width="5" height="5" fill="#ecd2ab" /><rect x="600" y="222" width="5" height="5" fill="#ecd2ab" /><rect x="605" y="222" width="5" height="5" fill="#ecd2ab" /><rect x="610" y="222" width="5" height="5" fill="#ecd2ab" /><rect x="615" y="222" width="5" height="5" fill="#ecd2ab" /><rect x="620" y="222" width="5" height="5" fill="#ecd2ab" /><rect x="625" y="222" width="5" height="5" fill="#ecd2ab" /><rect x="630" y="222" width="5" height="5" fill="#ecd2ab" /><rect x="635" y="222" width="5" height="5" fill="#ecd2ab" /><rect x="640" y="222" width="5" height="5" fill="#96653c" /><rect x="645" y="222" width="5" height="5" fill="#1d1208" /><rect x="560" y="227" width="5" height="5" fill="#1d1208" /><rect x="565" y="227" width="5" height="5" fill="#96653c" /><rect x="570" y="227" width="5" height="5" fill="#96653c" /><rect x="575" y="227" width="5" height="5" fill="#96653c" /><rect x="580" y="227" width="5" height="5" fill="#96653c" /><rect x="585" y="227" width="5" height="5" fill="#96653c" /><rect x="590" y="227" width="5" height="5" fill="#96653c" /><rect x="595" y="227" width="5" height="5" fill="#96653c" /><rect x="600" y="227" width="5" height="5" fill="#96653c" /><rect x="605" y="227" width="5" height="5" fill="#96653c" /><rect x="610" y="227" width="5" height="5" fill="#96653c" /><rect x="615" y="227" width="5" height="5" fill="#96653c" /><rect x="620" y="227" width="5" height="5" fill="#96653c" /><rect x="625" y="227" width="5" height="5" fill="#96653c" /><rect x="630" y="227" width="5" height="5" fill="#96653c" /><rect x="635" y="227" width="5" height="5" fill="#96653c" /><rect x="640" y="227" width="5" height="5" fill="#96653c" /><rect x="645" y="227" width="5" height="5" fill="#1d1208" /><rect x="565" y="232" width="5" height="5" fill="#1d1208" /><rect x="570" y="232" width="5" height="5" fill="#1d1208" /><rect x="575" y="232" width="5" height="5" fill="#1d1208" /><rect x="580" y="232" width="5" height="5" fill="#1d1208" /><rect x="585" y="232" width="5" height="5" fill="#1d1208" /><rect x="590" y="232" width="5" height="5" fill="#1d1208" /><rect x="595" y="232" width="5" height="5" fill="#1d1208" /><rect x="600" y="232" width="5" height="5" fill="#1d1208" /><rect x="605" y="232" width="5" height="5" fill="#1d1208" /><rect x="610" y="232" width="5" height="5" fill="#1d1208" /><rect x="615" y="232" width="5" height="5" fill="#1d1208" /><rect x="620" y="232" width="5" height="5" fill="#1d1208" /><rect x="625" y="232" width="5" height="5" fill="#1d1208" /><rect x="630" y="232" width="5" height="5" fill="#1d1208" /><rect x="635" y="232" width="5" height="5" fill="#1d1208" /><rect x="640" y="232" width="5" height="5" fill="#1d1208" /><rect x="533" y="177" width="5" height="5" fill="#1d1208" /><rect x="538" y="177" width="5" height="5" fill="#1d1208" /><rect x="563" y="177" width="5" height="5" fill="#1d1208" /><rect x="568" y="177" width="5" height="5" fill="#1d1208" /><rect x="533" y="182" width="5" height="5" fill="#1d1208" /><rect x="538" y="182" width="5" height="5" fill="#7b4f2c" /><rect x="543" y="182" width="5" height="5" fill="#1d1208" /><rect x="548" y="182" width="5" height="5" fill="#1d1208" /><rect x="553" y="182" width="5" height="5" fill="#1d1208" /><rect x="558" y="182" width="5" height="5" fill="#1d1208" /><rect x="563" y="182" width="5" height="5" fill="#7b4f2c" /><rect x="568" y="182" width="5" height="5" fill="#1d1208" /><rect x="528" y="187" width="5" height="5" fill="#1d1208" /><rect x="533" y="187" width="5" height="5" fill="#1d1208" /><rect x="538" y="187" width="5" height="5" fill="#96653c" /><rect x="543" y="187" width="5" height="5" fill="#96653c" /><rect x="548" y="187" width="5" height="5" fill="#96653c" /><rect x="553" y="187" width="5" height="5" fill="#96653c" /><rect x="558" y="187" width="5" height="5" fill="#96653c" /><rect x="563" y="187" width="5" height="5" fill="#96653c" /><rect x="568" y="187" width="5" height="5" fill="#1d1208" /><rect x="573" y="187" width="5" height="5" fill="#1d1208" /><rect x="528" y="192" width="5" height="5" fill="#1d1208" /><rect x="533" y="192" width="5" height="5" fill="#96653c" /><rect x="538" y="192" width="5" height="5" fill="#96653c" /><rect x="543" y="192" width="5" height="5" fill="#96653c" /><rect x="548" y="192" width="5" height="5" fill="#96653c" /><rect x="553" y="192" width="5" height="5" fill="#96653c" /><rect x="558" y="192" width="5" height="5" fill="#96653c" /><rect x="563" y="192" width="5" height="5" fill="#96653c" /><rect x="568" y="192" width="5" height="5" fill="#96653c" /><rect x="573" y="192" width="5" height="5" fill="#1d1208" /><rect x="528" y="197" width="5" height="5" fill="#1d1208" /><rect x="533" y="197" width="5" height="5" fill="#96653c" /><rect x="538" y="197" width="5" height="5" fill="#241a10" /><rect x="543" y="197" width="5" height="5" fill="#96653c" /><rect x="548" y="197" width="5" height="5" fill="#96653c" /><rect x="553" y="197" width="5" height="5" fill="#96653c" /><rect x="558" y="197" width="5" height="5" fill="#96653c" /><rect x="563" y="197" width="5" height="5" fill="#241a10" /><rect x="568" y="197" width="5" height="5" fill="#96653c" /><rect x="573" y="197" width="5" height="5" fill="#1d1208" /><rect x="528" y="202" width="5" height="5" fill="#1d1208" /><rect x="533" y="202" width="5" height="5" fill="#96653c" /><rect x="538" y="202" width="5" height="5" fill="#96653c" /><rect x="543" y="202" width="5" height="5" fill="#ecd2ab" /><rect x="548" y="202" width="5" height="5" fill="#ecd2ab" /><rect x="553" y="202" width="5" height="5" fill="#ecd2ab" /><rect x="558" y="202" width="5" height="5" fill="#ecd2ab" /><rect x="563" y="202" width="5" height="5" fill="#96653c" /><rect x="568" y="202" width="5" height="5" fill="#96653c" /><rect x="573" y="202" width="5" height="5" fill="#1d1208" /><rect x="528" y="207" width="5" height="5" fill="#1d1208" /><rect x="533" y="207" width="5" height="5" fill="#96653c" /><rect x="538" y="207" width="5" height="5" fill="#ecd2ab" /><rect x="543" y="207" width="5" height="5" fill="#ecd2ab" /><rect x="548" y="207" width="5" height="5" fill="#241a10" /><rect x="553" y="207" width="5" height="5" fill="#241a10" /><rect x="558" y="207" width="5" height="5" fill="#ecd2ab" /><rect x="563" y="207" width="5" height="5" fill="#ecd2ab" /><rect x="568" y="207" width="5" height="5" fill="#96653c" /><rect x="573" y="207" width="5" height="5" fill="#1d1208" /><rect x="533" y="212" width="5" height="5" fill="#1d1208" /><rect x="538" y="212" width="5" height="5" fill="#ecd2ab" /><rect x="543" y="212" width="5" height="5" fill="#ecd2ab" /><rect x="548" y="212" width="5" height="5" fill="#ecd2ab" /><rect x="553" y="212" width="5" height="5" fill="#ecd2ab" /><rect x="558" y="212" width="5" height="5" fill="#ecd2ab" /><rect x="563" y="212" width="5" height="5" fill="#ecd2ab" /><rect x="568" y="212" width="5" height="5" fill="#1d1208" /><rect x="538" y="217" width="5" height="5" fill="#1d1208" /><rect x="543" y="217" width="5" height="5" fill="#1d1208" /><rect x="548" y="217" width="5" height="5" fill="#1d1208" /><rect x="553" y="217" width="5" height="5" fill="#1d1208" /><rect x="558" y="217" width="5" height="5" fill="#1d1208" /><rect x="563" y="217" width="5" height="5" fill="#1d1208" /><rect x="586" y="209" width="7" height="7" fill="#96653c" /><rect x="614" y="209" width="7" height="7" fill="#96653c" /><rect x="596" y="194" width="5" height="5" fill="#5c4330" /><rect x="601" y="194" width="5" height="5" fill="#5c4330" /><rect x="606" y="194" width="5" height="5" fill="#5c4330" /><rect x="591" y="199" width="5" height="5" fill="#5c4330" /><rect x="596" y="199" width="5" height="5" fill="#5c4330" /><rect x="601" y="199" width="5" height="5" fill="#7a5a42" /><rect x="606" y="199" width="5" height="5" fill="#5c4330" /><rect x="611" y="199" width="5" height="5" fill="#5c4330" /><rect x="591" y="204" width="5" height="5" fill="#5c4330" /><rect x="596" y="204" width="5" height="5" fill="#5c4330" /><rect x="601" y="204" width="5" height="5" fill="#5c4330" /><rect x="606" y="204" width="5" height="5" fill="#5c4330" /><rect x="611" y="204" width="5" height="5" fill="#5c4330" /><rect x="596" y="209" width="5" height="5" fill="#5c4330" /><rect x="601" y="209" width="5" height="5" fill="#5c4330" /><rect x="606" y="209" width="5" height="5" fill="#5c4330" /><rect x="661" y="222" width="5" height="5" fill="#1d1208" /><rect x="666" y="222" width="5" height="5" fill="#1d1208" /><rect x="681" y="222" width="5" height="5" fill="#1d1208" /><rect x="686" y="222" width="5" height="5" fill="#1d1208" /><rect x="656" y="227" width="5" height="5" fill="#1d1208" /><rect x="661" y="227" width="5" height="5" fill="#7b4f2c" /><rect x="666" y="227" width="5" height="5" fill="#7b4f2c" /><rect x="671" y="227" width="5" height="5" fill="#1d1208" /><rect x="676" y="227" width="5" height="5" fill="#1d1208" /><rect x="681" y="227" width="5" height="5" fill="#7b4f2c" /><rect x="686" y="227" width="5" height="5" fill="#7b4f2c" /><rect x="691" y="227" width="5" height="5" fill="#1d1208" /><rect x="661" y="232" width="5" height="5" fill="#1d1208" /><rect x="666" y="232" width="5" height="5" fill="#1d1208" /><rect x="681" y="232" width="5" height="5" fill="#1d1208" /><rect x="686" y="232" width="5" height="5" fill="#1d1208" /><rect x="519" y="208" width="9" height="2" fill="#e8d5b5" opacity=".85"/><rect x="521" y="213" width="7" height="2" fill="#e8d5b5" opacity=".85"/><rect x="578" y="208" width="9" height="2" fill="#e8d5b5" opacity=".85"/><rect x="580" y="213" width="7" height="2" fill="#e8d5b5" opacity=".85"/></g>
<rect x="514" y="238" width="22" height="3" fill="#7fd4c1" class="tw" style="animation-delay:0.5s" opacity=".45"/>
<rect x="548" y="242" width="16" height="3" fill="#7fd4c1" class="tw" style="animation-delay:1.7s" opacity=".45"/>
<rect x="594" y="239" width="26" height="3" fill="#7fd4c1" class="tw" style="animation-delay:0.1s" opacity=".45"/>
<rect x="644" y="243" width="18" height="3" fill="#7fd4c1" class="tw" style="animation-delay:2.2s" opacity=".45"/>
<rect x="678" y="238" width="14" height="3" fill="#7fd4c1" class="tw" style="animation-delay:1.0s" opacity=".45"/>
<rect x="698" y="268" width="4" height="4" fill="#ff8f6b" />
<rect x="694" y="272" width="4" height="4" fill="#ff8f6b" />
<rect x="698" y="272" width="4" height="4" fill="#ff8f6b" />
<rect x="702" y="272" width="4" height="4" fill="#ff8f6b" />
<rect x="690" y="276" width="4" height="4" fill="#ff8f6b" />
<rect x="694" y="276" width="4" height="4" fill="#ff8f6b" />
<rect x="698" y="276" width="4" height="4" fill="#ff8f6b" />
<rect x="702" y="276" width="4" height="4" fill="#ff8f6b" />
<rect x="706" y="276" width="4" height="4" fill="#ff8f6b" />
<rect x="694" y="280" width="4" height="4" fill="#ff8f6b" />
<rect x="702" y="280" width="4" height="4" fill="#ff8f6b" />
<rect x="71" y="64" width="7" height="7" fill="#fff3e2" />
<rect x="78" y="64" width="7" height="7" fill="#fff3e2" />
<rect x="85" y="64" width="7" height="7" fill="#fff3e2" />
<rect x="92" y="64" width="7" height="7" fill="#fff3e2" />
<rect x="64" y="71" width="7" height="7" fill="#fff3e2" />
<rect x="64" y="78" width="7" height="7" fill="#fff3e2" />
<rect x="71" y="85" width="7" height="7" fill="#fff3e2" />
<rect x="78" y="85" width="7" height="7" fill="#fff3e2" />
<rect x="85" y="85" width="7" height="7" fill="#fff3e2" />
<rect x="92" y="92" width="7" height="7" fill="#fff3e2" />
<rect x="92" y="99" width="7" height="7" fill="#fff3e2" />
<rect x="64" y="106" width="7" height="7" fill="#fff3e2" />
<rect x="71" y="106" width="7" height="7" fill="#fff3e2" />
<rect x="78" y="106" width="7" height="7" fill="#fff3e2" />
<rect x="85" y="106" width="7" height="7" fill="#fff3e2" />
<rect x="113" y="64" width="7" height="7" fill="#fff3e2" />
<rect x="120" y="64" width="7" height="7" fill="#fff3e2" />
<rect x="127" y="64" width="7" height="7" fill="#fff3e2" />
<rect x="106" y="71" width="7" height="7" fill="#fff3e2" />
<rect x="134" y="71" width="7" height="7" fill="#fff3e2" />
<rect x="106" y="78" width="7" height="7" fill="#fff3e2" />
<rect x="134" y="78" width="7" height="7" fill="#fff3e2" />
<rect x="106" y="85" width="7" height="7" fill="#fff3e2" />
<rect x="134" y="85" width="7" height="7" fill="#fff3e2" />
<rect x="106" y="92" width="7" height="7" fill="#fff3e2" />
<rect x="134" y="92" width="7" height="7" fill="#fff3e2" />
<rect x="106" y="99" width="7" height="7" fill="#fff3e2" />
<rect x="134" y="99" width="7" height="7" fill="#fff3e2" />
<rect x="113" y="106" width="7" height="7" fill="#fff3e2" />
<rect x="120" y="106" width="7" height="7" fill="#fff3e2" />
<rect x="127" y="106" width="7" height="7" fill="#fff3e2" />
<rect x="155" y="64" width="7" height="7" fill="#fff3e2" />
<rect x="162" y="64" width="7" height="7" fill="#fff3e2" />
<rect x="169" y="64" width="7" height="7" fill="#fff3e2" />
<rect x="148" y="71" width="7" height="7" fill="#fff3e2" />
<rect x="176" y="71" width="7" height="7" fill="#fff3e2" />
<rect x="148" y="78" width="7" height="7" fill="#fff3e2" />
<rect x="148" y="85" width="7" height="7" fill="#fff3e2" />
<rect x="148" y="92" width="7" height="7" fill="#fff3e2" />
<rect x="148" y="99" width="7" height="7" fill="#fff3e2" />
<rect x="176" y="99" width="7" height="7" fill="#fff3e2" />
<rect x="155" y="106" width="7" height="7" fill="#fff3e2" />
<rect x="162" y="106" width="7" height="7" fill="#fff3e2" />
<rect x="169" y="106" width="7" height="7" fill="#fff3e2" />
<rect x="190" y="64" width="7" height="7" fill="#fff3e2" />
<rect x="197" y="64" width="7" height="7" fill="#fff3e2" />
<rect x="204" y="64" width="7" height="7" fill="#fff3e2" />
<rect x="211" y="64" width="7" height="7" fill="#fff3e2" />
<rect x="190" y="71" width="7" height="7" fill="#fff3e2" />
<rect x="218" y="71" width="7" height="7" fill="#fff3e2" />
<rect x="190" y="78" width="7" height="7" fill="#fff3e2" />
<rect x="218" y="78" width="7" height="7" fill="#fff3e2" />
<rect x="190" y="85" width="7" height="7" fill="#fff3e2" />
<rect x="197" y="85" width="7" height="7" fill="#fff3e2" />
<rect x="204" y="85" width="7" height="7" fill="#fff3e2" />
<rect x="211" y="85" width="7" height="7" fill="#fff3e2" />
<rect x="190" y="92" width="7" height="7" fill="#fff3e2" />
<rect x="204" y="92" width="7" height="7" fill="#fff3e2" />
<rect x="190" y="99" width="7" height="7" fill="#fff3e2" />
<rect x="211" y="99" width="7" height="7" fill="#fff3e2" />
<rect x="190" y="106" width="7" height="7" fill="#fff3e2" />
<rect x="218" y="106" width="7" height="7" fill="#fff3e2" />
<rect x="239" y="64" width="7" height="7" fill="#fff3e2" />
<rect x="246" y="64" width="7" height="7" fill="#fff3e2" />
<rect x="253" y="64" width="7" height="7" fill="#fff3e2" />
<rect x="232" y="71" width="7" height="7" fill="#fff3e2" />
<rect x="260" y="71" width="7" height="7" fill="#fff3e2" />
<rect x="232" y="78" width="7" height="7" fill="#fff3e2" />
<rect x="260" y="78" width="7" height="7" fill="#fff3e2" />
<rect x="232" y="85" width="7" height="7" fill="#fff3e2" />
<rect x="239" y="85" width="7" height="7" fill="#fff3e2" />
<rect x="246" y="85" width="7" height="7" fill="#fff3e2" />
<rect x="253" y="85" width="7" height="7" fill="#fff3e2" />
<rect x="260" y="85" width="7" height="7" fill="#fff3e2" />
<rect x="232" y="92" width="7" height="7" fill="#fff3e2" />
<rect x="260" y="92" width="7" height="7" fill="#fff3e2" />
<rect x="232" y="99" width="7" height="7" fill="#fff3e2" />
<rect x="260" y="99" width="7" height="7" fill="#fff3e2" />
<rect x="232" y="106" width="7" height="7" fill="#fff3e2" />
<rect x="260" y="106" width="7" height="7" fill="#fff3e2" />
<rect x="274" y="64" width="7" height="7" fill="#fff3e2" />
<rect x="281" y="64" width="7" height="7" fill="#fff3e2" />
<rect x="288" y="64" width="7" height="7" fill="#fff3e2" />
<rect x="295" y="64" width="7" height="7" fill="#fff3e2" />
<rect x="302" y="64" width="7" height="7" fill="#fff3e2" />
<rect x="288" y="71" width="7" height="7" fill="#fff3e2" />
<rect x="288" y="78" width="7" height="7" fill="#fff3e2" />
<rect x="288" y="85" width="7" height="7" fill="#fff3e2" />
<rect x="288" y="92" width="7" height="7" fill="#fff3e2" />
<rect x="288" y="99" width="7" height="7" fill="#fff3e2" />
<rect x="288" y="106" width="7" height="7" fill="#fff3e2" />
<rect x="316" y="64" width="7" height="7" fill="#fff3e2" />
<rect x="323" y="64" width="7" height="7" fill="#fff3e2" />
<rect x="330" y="64" width="7" height="7" fill="#fff3e2" />
<rect x="337" y="64" width="7" height="7" fill="#fff3e2" />
<rect x="344" y="64" width="7" height="7" fill="#fff3e2" />
<rect x="316" y="71" width="7" height="7" fill="#fff3e2" />
<rect x="316" y="78" width="7" height="7" fill="#fff3e2" />
<rect x="316" y="85" width="7" height="7" fill="#fff3e2" />
<rect x="323" y="85" width="7" height="7" fill="#fff3e2" />
<rect x="330" y="85" width="7" height="7" fill="#fff3e2" />
<rect x="337" y="85" width="7" height="7" fill="#fff3e2" />
<rect x="316" y="92" width="7" height="7" fill="#fff3e2" />
<rect x="316" y="99" width="7" height="7" fill="#fff3e2" />
<rect x="316" y="106" width="7" height="7" fill="#fff3e2" />
<rect x="323" y="106" width="7" height="7" fill="#fff3e2" />
<rect x="330" y="106" width="7" height="7" fill="#fff3e2" />
<rect x="337" y="106" width="7" height="7" fill="#fff3e2" />
<rect x="344" y="106" width="7" height="7" fill="#fff3e2" />
<rect x="364" y="92" width="7" height="21" fill="#ff8f6b" class="tw"/>
<text x="66" y="150" class="sub" fill="#ecd3b6">crafting <tspan fill="#ff8f6b">Walyverse</tspan>, a French Minecraft universe</text>
<text x="66" y="174" class="sub" fill="#ecd3b6" opacity=".8">walyverse.fr</text>
</g>
<rect x="0.5" y="0.5" width="879" height="299" rx="12" fill="none" stroke="#3a2540"/>
</svg>