<svg width="880" height="250" viewBox="0 0 880 250" xmlns="http://www.w3.org/2000/svg" role="img" aria-label="GitHub stats for wSocrate">
<style>
      .num { font: 700 30px ui-monospace, 'Cascadia Code', Consolas, monospace; }
      .lbl { font: 500 12px ui-monospace, 'Cascadia Code', Consolas, monospace; }
      .cell { animation: pop .5s ease-out backwards; }
      @keyframes pop { from { opacity: 0 } to { opacity: 1 } }
    </style>
<defs><linearGradient id="bg" x1="0" y1="0" x2="0" y2="1">
      <stop offset="0" stop-color="#0d1b2a"/><stop offset="1" stop-color="#0f2438"/>
    </linearGradient></defs>
<rect width="880" height="250" rx="12" fill="url(#bg)"/>
<rect x="0.5" y="0.5" width="879" height="249" rx="12" fill="none" stroke="#24435c"/>
<text x="64" y="62" class="num" fill="#f2ede3">54</text>
<text x="64" y="84" class="lbl" fill="#8ea8ba">contributions this year</text>
<text x="259" y="62" class="num" fill="#f2ede3">1</text>
<text x="259" y="84" class="lbl" fill="#8ea8ba">current daily streak</text>
<text x="454" y="62" class="num" fill="#f2ede3">2</text>
<text x="454" y="84" class="lbl" fill="#8ea8ba">best daily streak</text>
<text x="649" y="62" class="num" fill="#f2ede3">4</text>
<text x="649" y="84" class="lbl" fill="#8ea8ba">repos contributed to</text>
<rect x="64" y="112" width="11" height="11" rx="2.5" fill="#142c3d" class="cell" style="animation-delay:0.000s"/>
<rect x="64" y="126" width="11" height="11" rx="2.5" fill="#142c3d" class="cell" style="animation-delay:0.000s"/>
<rect x="64" y="140" width="11" height="11" rx="2.5" fill="#142c3d" class="cell" style="animation-delay:0.000s"/>
<rect x="64" y="154" width="11" height="11" rx="2.5" fill="#142c3d" class="cell" style="animation-delay:0.000s"/>
<rect x="64" y="168" width="11" height="11" rx="2.5" fill="#142c3d" class="cell" style="animation-delay:0.000s"/>
<rect x="64" y="182" width="11" height="11" rx="2.5" fill="#16b89a" class="cell" style="animation-delay:0.000s"/>
<rect x="64" y="196" width="11" height="11" rx="2.5" fill="#0e7c6b" class="cell" style="animation-delay:0.000s"/>
<rect x="78" y="112" width="11" height="11" rx="2.5" fill="#142c3d" class="cell" style="animation-delay:0.012s"/>
<rect x="78" y="126" width="11" height="11" rx="2.5" fill="#142c3d" class="cell" style="animation-delay:0.012s"/>
<rect x="78" y="140" width="11" height="11" rx="2.5" fill="#142c3d" class="cell" style="animation-delay:0.012s"/>
<rect x="78" y="154" width="11" height="11" rx="2.5" fill="#142c3d" class="cell" style="animation-delay:0.012s"/>
<rect x="78" y="168" width="11" height="11" rx="2.5" fill="#142c3d" class="cell" style="animation-delay:0.012s"/>
<rect x="78" y="182" width="11" height="11" rx="2.5" fill="#142c3d" class="cell" style="animation-delay:0.012s"/>
<rect x="78" y="196" width="11" height="11" rx="2.5" fill="#142c3d" class="cell" style="animation-delay:0.012s"/>
<rect x="92" y="112" width="11" height="11" rx="2.5" fill="#142c3d" class="cell" style="animation-delay:0.024s"/>
<rect x="92" y="126" width="11" height="11" rx="2.5" fill="#142c3d" class="cell" style="animation-delay:0.024s"/>
<rect x="92" y="140" width="11" height="11" rx="2.5" fill="#142c3d" class="cell" style="animation-delay:0.024s"/>
<rect x="92" y="154" width="11" height="11" rx="2.5" fill="#142c3d" class="cell" style="animation-delay:0.024s"/>
<rect x="92" y="168" width="11" height="11" rx="2.5" fill="#142c3d" class="cell" style="animation-delay:0.024s"/>
<rect x="92" y="182" width="11" height="11" rx="2.5" fill="#142c3d" class="cell" style="animation-delay:0.024s"/>
<rect x="92" y="196" width="11" height="11" rx="2.5" fill="#142c3d" class="cell" style="animation-delay:0.024s"/>
<rect x="106" y="112" width="11" height="11" rx="2.5" fill="#142c3d" class="cell" style="animation-delay:0.036s"/>
<rect x="106" y="126" width="11" height="11" rx="2.5" fill="#142c3d" class="cell" style="animation-delay:0.036s"/>
<rect x="106" y="140" width="11" height="11" rx="2.5" fill="#142c3d" class="cell" style="animation-delay:0.036s"/>
<rect x="106" y="154" width="11" height="11" rx="2.5" fill="#142c3d" class="cell" style="animation-delay:0.036s"/>
<rect x="106" y="168" width="11" height="11" rx="2.5" fill="#142c3d" class="cell" style="animation-delay:0.036s"/>
<rect x="106" y="182" width="11" height="11" rx="2.5" fill="#142c3d" class="cell" style="animation-delay:0.036s"/>
<rect x="106" y="196" width="11" height="11" rx="2.5" fill="#142c3d" class="cell" style="animation-delay:0.036s"/>
<rect x="120" y="112" width="11" height="11" rx="2.5" fill="#142c3d" class="cell" style="animation-delay:0.048s"/>
<rect x="120" y="126" width="11" height="11" rx="2.5" fill="#142c3d" class="cell" style="animation-delay:0.048s"/>
<rect x="120" y="140" width="11" height="11" rx="2.5" fill="#142c3d" class="cell" style="animation-delay:0.048s"/>
<rect x="120" y="154" width="11" height="11" rx="2.5" fill="#142c3d" class="cell" style="animation-delay:0.048s"/>
<rect x="120" y="168" width="11" height="11" rx="2.5" fill="#142c3d" class="cell" style="animation-delay:0.048s"/>
<rect x="120" y="182" width="11" height="11" rx="2.5" fill="#142c3d" class="cell" style="animation-delay:0.048s"/>
<rect x="120" y="196" width="11" height="11" rx="2.5" fill="#142c3d" class="cell" style="animation-delay:0.048s"/>
<rect x="134" y="112" width="11" height="11" rx="2.5" fill="#142c3d" class="cell" style="animation-delay:0.060s"/>
<rect x="134" y="126" width="11" height="11" rx="2.5" fill="#142c3d" class="cell" style="animation-delay:0.060s"/>
<rect x="134" y="140" width="11" height="11" rx="2.5" fill="#142c3d" class="cell" style="animation-delay:0.060s"/>
<rect x="134" y="154" width="11" height="11" rx="2.5" fill="#142c3d" class="cell" style="animation-delay:0.060s"/>
<rect x="134" y="168" width="11" height="11" rx="2.5" fill="#142c3d" class="cell" style="animation-delay:0.060s"/>
<rect x="134" y="182" width="11" height="11" rx="2.5" fill="#142c3d" class="cell" style="animation-delay:0.060s"/>
<rect x="134" y="196" width="11" height="11" rx="2.5" fill="#142c3d" class="cell" style="animation-delay:0.060s"/>
<rect x="148" y="112" width="11" height="11" rx="2.5" fill="#142c3d" class="cell" style="animation-delay:0.072s"/>
<rect x="148" y="126" width="11" height="11" rx="2.5" fill="#142c3d" class="cell" style="animation-delay:0.072s"/>
<rect x="148" y="140" width="11" height="11" rx="2.5" fill="#142c3d" class="cell" style="animation-delay:0.072s"/>
<rect x="148" y="154" width="11" height="11" rx="2.5" fill="#142c3d" class="cell" style="animation-delay:0.072s"/>
<rect x="148" y="168" width="11" height="11" rx="2.5" fill="#142c3d" class="cell" style="animation-delay:0.072s"/>
<rect x="148" y="182" width="11" height="11" rx="2.5" fill="#142c3d" class="cell" style="animation-delay:0.072s"/>
<rect x="148" y="196" width="11" height="11" rx="2.5" fill="#142c3d" class="cell" style="animation-delay:0.072s"/>
<rect x="162" y="112" width="11" height="11" rx="2.5" fill="#142c3d" class="cell" style="animation-delay:0.084s"/>
<rect x="162" y="126" width="11" height="11" rx="2.5" fill="#142c3d" class="cell" style="animation-delay:0.084s"/>
<rect x="162" y="140" width="11" height="11" rx="2.5" fill="#142c3d" class="cell" style="animation-delay:0.084s"/>
<rect x="162" y="154" width="11" height="11" rx="2.5" fill="#142c3d" class="cell" style="animation-delay:0.084s"/>
<rect x="162" y="168" width="11" height="11" rx="2.5" fill="#142c3d" class="cell" style="animation-delay:0.084s"/>
<rect x="162" y="182" width="11" height="11" rx="2.5" fill="#142c3d" class="cell" style="animation-delay:0.084s"/>
<rect x="162" y="196" width="11" height="11" rx="2.5" fill="#142c3d" class="cell" style="animation-delay:0.084s"/>
<rect x="176" y="112" width="11" height="11" rx="2.5" fill="#142c3d" class="cell" style="animation-delay:0.096s"/>
<rect x="176" y="126" width="11" height="11" rx="2.5" fill="#142c3d" class="cell" style="animation-delay:0.096s"/>
<rect x="176" y="140" width="11" height="11" rx="2.5" fill="#142c3d" class="cell" style="animation-delay:0.096s"/>
<rect x="176" y="154" width="11" height="11" rx="2.5" fill="#142c3d" class="cell" style="animation-delay:0.096s"/>
<rect x="176" y="168" width="11" height="11" rx="2.5" fill="#142c3d" class="cell" style="animation-delay:0.096s"/>
<rect x="176" y="182" width="11" height="11" rx="2.5" fill="#142c3d" class="cell" style="animation-delay:0.096s"/>
<rect x="176" y="196" width="11" height="11" rx="2.5" fill="#142c3d" class="cell" style="animation-delay:0.096s"/>
<rect x="190" y="112" width="11" height="11" rx="2.5" fill="#142c3d" class="cell" style="animation-delay:0.108s"/>
<rect x="190" y="126" width="11" height="11" rx="2.5" fill="#142c3d" class="cell" style="animation-delay:0.108s"/>
<rect x="190" y="140" width="11" height="11" rx="2.5" fill="#142c3d" class="cell" style="animation-delay:0.108s"/>
<rect x="190" y="154" width="11" height="11" rx="2.5" fill="#142c3d" class="cell" style="animation-delay:0.108s"/>
<rect x="190" y="168" width="11" height="11" rx="2.5" fill="#142c3d" class="cell" style="animation-delay:0.108s"/>
<rect x="190" y="182" width="11" height="11" rx="2.5" fill="#142c3d" class="cell" style="animation-delay:0.108s"/>
<rect x="190" y="196" width="11" height="11" rx="2.5" fill="#142c3d" class="cell" style="animation-delay:0.108s"/>
<rect x="204" y="112" width="11" height="11" rx="2.5" fill="#142c3d" class="cell" style="animation-delay:0.120s"/>
<rect x="204" y="126" width="11" height="11" rx="2.5" fill="#142c3d" class="cell" style="animation-delay:0.120s"/>
<rect x="204" y="140" width="11" height="11" rx="2.5" fill="#142c3d" class="cell" style="animation-delay:0.120s"/>
<rect x="204" y="154" width="11" height="11" rx="2.5" fill="#142c3d" class="cell" style="animation-delay:0.120s"/>
<rect x="204" y="168" width="11" height="11" rx="2.5" fill="#142c3d" class="cell" style="animation-delay:0.120s"/>
<rect x="204" y="182" width="11" height="11" rx="2.5" fill="#142c3d" class="cell" style="animation-delay:0.120s"/>
<rect x="204" y="196" width="11" height="11" rx="2.5" fill="#142c3d" class="cell" style="animation-delay:0.120s"/>
<rect x="218" y="112" width="11" height="11" rx="2.5" fill="#142c3d" class="cell" style="animation-delay:0.132s"/>
<rect x="218" y="126" width="11" height="11" rx="2.5" fill="#142c3d" class="cell" style="animation-delay:0.132s"/>
<rect x="218" y="140" width="11" height="11" rx="2.5" fill="#142c3d" class="cell" style="animation-delay:0.132s"/>
<rect x="218" y="154" width="11" height="11" rx="2.5" fill="#142c3d" class="cell" style="animation-delay:0.132s"/>
<rect x="218" y="168" width="11" height="11" rx="2.5" fill="#142c3d" class="cell" style="animation-delay:0.132s"/>
<rect x="218" y="182" width="11" height="11" rx="2.5" fill="#142c3d" class="cell" style="animation-delay:0.132s"/>
<rect x="218" y="196" width="11" height="11" rx="2.5" fill="#142c3d" class="cell" style="animation-delay:0.132s"/>
<rect x="232" y="112" width="11" height="11" rx="2.5" fill="#142c3d" class="cell" style="animation-delay:0.144s"/>
<rect x="232" y="126" width="11" height="11" rx="2.5" fill="#142c3d" class="cell" style="animation-delay:0.144s"/>
<rect x="232" y="140" width="11" height="11" rx="2.5" fill="#142c3d" class="cell" style="animation-delay:0.144s"/>
<rect x="232" y="154" width="11" height="11" rx="2.5" fill="#142c3d" class="cell" style="animation-delay:0.144s"/>
<rect x="232" y="168" width="11" height="11" rx="2.5" fill="#142c3d" class="cell" style="animation-delay:0.144s"/>
<rect x="232" y="182" width="11" height="11" rx="2.5" fill="#142c3d" class="cell" style="animation-delay:0.144s"/>
<rect x="232" y="196" width="11" height="11" rx="2.5" fill="#142c3d" class="cell" style="animation-delay:0.144s"/>
<rect x="246" y="112" width="11" height="11" rx="2.5" fill="#142c3d" class="cell" style="animation-delay:0.156s"/>
<rect x="246" y="126" width="11" height="11" rx="2.5" fill="#142c3d" class="cell" style="animation-delay:0.156s"/>
<rect x="246" y="140" width="11" height="11" rx="2.5" fill="#142c3d" class="cell" style="animation-delay:0.156s"/>
<rect x="246" y="154" width="11" height="11" rx="2.5" fill="#142c3d" class="cell" style="animation-delay:0.156s"/>
<rect x="246" y="168" width="11" height="11" rx="2.5" fill="#142c3d" class="cell" style="animation-delay:0.156s"/>
<rect x="246" y="182" width="11" height="11" rx="2.5" fill="#142c3d" class="cell" style="animation-delay:0.156s"/>
<rect x="246" y="196" width="11" height="11" rx="2.5" fill="#142c3d" class="cell" style="animation-delay:0.156s"/>
<rect x="260" y="112" width="11" height="11" rx="2.5" fill="#142c3d" class="cell" style="animation-delay:0.168s"/>
<rect x="260" y="126" width="11" height="11" rx="2.5" fill="#142c3d" class="cell" style="animation-delay:0.168s"/>
<rect x="260" y="140" width="11" height="11" rx="2.5" fill="#142c3d" class="cell" style="animation-delay:0.168s"/>
<rect x="260" y="154" width="11" height="11" rx="2.5" fill="#142c3d" class="cell" style="animation-delay:0.168s"/>
<rect x="260" y="168" width="11" height="11" rx="2.5" fill="#142c3d" class="cell" style="animation-delay:0.168s"/>
<rect x="260" y="182" width="11" height="11" rx="2.5" fill="#142c3d" class="cell" style="animation-delay:0.168s"/>
<rect x="260" y="196" width="11" height="11" rx="2.5" fill="#142c3d" class="cell" style="animation-delay:0.168s"/>
<rect x="274" y="112" width="11" height="11" rx="2.5" fill="#142c3d" class="cell" style="animation-delay:0.180s"/>
<rect x="274" y="126" width="11" height="11" rx="2.5" fill="#142c3d" class="cell" style="animation-delay:0.180s"/>
<rect x="274" y="140" width="11" height="11" rx="2.5" fill="#142c3d" class="cell" style="animation-delay:0.180s"/>
<rect x="274" y="154" width="11" height="11" rx="2.5" fill="#142c3d" class="cell" style="animation-delay:0.180s"/>
<rect x="274" y="168" width="11" height="11" rx="2.5" fill="#142c3d" class="cell" style="animation-delay:0.180s"/>
<rect x="274" y="182" width="11" height="11" rx="2.5" fill="#142c3d" class="cell" style="animation-delay:0.180s"/>
<rect x="274" y="196" width="11" height="11" rx="2.5" fill="#142c3d" class="cell" style="animation-delay:0.180s"/>
<rect x="288" y="112" width="11" height="11" rx="2.5" fill="#142c3d" class="cell" style="animation-delay:0.192s"/>
<rect x="288" y="126" width="11" height="11" rx="2.5" fill="#142c3d" class="cell" style="animation-delay:0.192s"/>
<rect x="288" y="140" width="11" height="11" rx="2.5" fill="#142c3d" class="cell" style="animation-delay:0.192s"/>
<rect x="288" y="154" width="11" height="11" rx="2.5" fill="#142c3d" class="cell" style="animation-delay:0.192s"/>
<rect x="288" y="168" width="11" height="11" rx="2.5" fill="#142c3d" class="cell" style="animation-delay:0.192s"/>
<rect x="288" y="182" width="11" height="11" rx="2.5" fill="#142c3d" class="cell" style="animation-delay:0.192s"/>
<rect x="288" y="196" width="11" height="11" rx="2.5" fill="#142c3d" class="cell" style="animation-delay:0.192s"/>
<rect x="302" y="112" width="11" height="11" rx="2.5" fill="#142c3d" class="cell" style="animation-delay:0.204s"/>
<rect x="302" y="126" width="11" height="11" rx="2.5" fill="#142c3d" class="cell" style="animation-delay:0.204s"/>
<rect x="302" y="140" width="11" height="11" rx="2.5" fill="#142c3d" class="cell" style="animation-delay:0.204s"/>
<rect x="302" y="154" width="11" height="11" rx="2.5" fill="#142c3d" class="cell" style="animation-delay:0.204s"/>
<rect x="302" y="168" width="11" height="11" rx="2.5" fill="#142c3d" class="cell" style="animation-delay:0.204s"/>
<rect x="302" y="182" width="11" height="11" rx="2.5" fill="#142c3d" class="cell" style="animation-delay:0.204s"/>
<rect x="302" y="196" width="11" height="11" rx="2.5" fill="#142c3d" class="cell" style="animation-delay:0.204s"/>
<rect x="316" y="112" width="11" height="11" rx="2.5" fill="#142c3d" class="cell" style="animation-delay:0.216s"/>
<rect x="316" y="126" width="11" height="11" rx="2.5" fill="#142c3d" class="cell" style="animation-delay:0.216s"/>
<rect x="316" y="140" width="11" height="11" rx="2.5" fill="#142c3d" class="cell" style="animation-delay:0.216s"/>
<rect x="316" y="154" width="11" height="11" rx="2.5" fill="#142c3d" class="cell" style="animation-delay:0.216s"/>
<rect x="316" y="168" width="11" height="11" rx="2.5" fill="#142c3d" class="cell" style="animation-delay:0.216s"/>
<rect x="316" y="182" width="11" height="11" rx="2.5" fill="#142c3d" class="cell" style="animation-delay:0.216s"/>
<rect x="316" y="196" width="11" height="11" rx="2.5" fill="#142c3d" class="cell" style="animation-delay:0.216s"/>
<rect x="330" y="112" width="11" height="11" rx="2.5" fill="#142c3d" class="cell" style="animation-delay:0.228s"/>
<rect x="330" y="126" width="11" height="11" rx="2.5" fill="#142c3d" class="cell" style="animation-delay:0.228s"/>
<rect x="330" y="140" width="11" height="11" rx="2.5" fill="#142c3d" class="cell" style="animation-delay:0.228s"/>
<rect x="330" y="154" width="11" height="11" rx="2.5" fill="#142c3d" class="cell" style="animation-delay:0.228s"/>
<rect x="330" y="168" width="11" height="11" rx="2.5" fill="#142c3d" class="cell" style="animation-delay:0.228s"/>
<rect x="330" y="182" width="11" height="11" rx="2.5" fill="#142c3d" class="cell" style="animation-delay:0.228s"/>
<rect x="330" y="196" width="11" height="11" rx="2.5" fill="#142c3d" class="cell" style="animation-delay:0.228s"/>
<rect x="344" y="112" width="11" height="11" rx="2.5" fill="#142c3d" class="cell" style="animation-delay:0.240s"/>
<rect x="344" y="126" width="11" height="11" rx="2.5" fill="#142c3d" class="cell" style="animation-delay:0.240s"/>
<rect x="344" y="140" width="11" height="11" rx="2.5" fill="#142c3d" class="cell" style="animation-delay:0.240s"/>
<rect x="344" y="154" width="11" height="11" rx="2.5" fill="#142c3d" class="cell" style="animation-delay:0.240s"/>
<rect x="344" y="168" width="11" height="11" rx="2.5" fill="#142c3d" class="cell" style="animation-delay:0.240s"/>
<rect x="344" y="182" width="11" height="11" rx="2.5" fill="#142c3d" class="cell" style="animation-delay:0.240s"/>
<rect x="344" y="196" width="11" height="11" rx="2.5" fill="#142c3d" class="cell" style="animation-delay:0.240s"/>
<rect x="358" y="112" width="11" height="11" rx="2.5" fill="#142c3d" class="cell" style="animation-delay:0.252s"/>
<rect x="358" y="126" width="11" height="11" rx="2.5" fill="#142c3d" class="cell" style="animation-delay:0.252s"/>
<rect x="358" y="140" width="11" height="11" rx="2.5" fill="#142c3d" class="cell" style="animation-delay:0.252s"/>
<rect x="358" y="154" width="11" height="11" rx="2.5" fill="#142c3d" class="cell" style="animation-delay:0.252s"/>
<rect x="358" y="168" width="11" height="11" rx="2.5" fill="#142c3d" class="cell" style="animation-delay:0.252s"/>
<rect x="358" y="182" width="11" height="11" rx="2.5" fill="#142c3d" class="cell" style="animation-delay:0.252s"/>
<rect x="358" y="196" width="11" height="11" rx="2.5" fill="#142c3d" class="cell" style="animation-delay:0.252s"/>
<rect x="372" y="112" width="11" height="11" rx="2.5" fill="#142c3d" class="cell" style="animation-delay:0.264s"/>
<rect x="372" y="126" width="11" height="11" rx="2.5" fill="#142c3d" class="cell" style="animation-delay:0.264s"/>
<rect x="372" y="140" width="11" height="11" rx="2.5" fill="#142c3d" class="cell" style="animation-delay:0.264s"/>
<rect x="372" y="154" width="11" height="11" rx="2.5" fill="#142c3d" class="cell" style="animation-delay:0.264s"/>
<rect x="372" y="168" width="11" height="11" rx="2.5" fill="#142c3d" class="cell" style="animation-delay:0.264s"/>
<rect x="372" y="182" width="11" height="11" rx="2.5" fill="#142c3d" class="cell" style="animation-delay:0.264s"/>
<rect x="372" y="196" width="11" height="11" rx="2.5" fill="#142c3d" class="cell" style="animation-delay:0.264s"/>
<rect x="386" y="112" width="11" height="11" rx="2.5" fill="#142c3d" class="cell" style="animation-delay:0.276s"/>
<rect x="386" y="126" width="11" height="11" rx="2.5" fill="#142c3d" class="cell" style="animation-delay:0.276s"/>
<rect x="386" y="140" width="11" height="11" rx="2.5" fill="#142c3d" class="cell" style="animation-delay:0.276s"/>
<rect x="386" y="154" width="11" height="11" rx="2.5" fill="#142c3d" class="cell" style="animation-delay:0.276s"/>
<rect x="386" y="168" width="11" height="11" rx="2.5" fill="#142c3d" class="cell" style="animation-delay:0.276s"/>
<rect x="386" y="182" width="11" height="11" rx="2.5" fill="#142c3d" class="cell" style="animation-delay:0.276s"/>
<rect x="386" y="196" width="11" height="11" rx="2.5" fill="#142c3d" class="cell" style="animation-delay:0.276s"/>
<rect x="400" y="112" width="11" height="11" rx="2.5" fill="#142c3d" class="cell" style="animation-delay:0.288s"/>
<rect x="400" y="126" width="11" height="11" rx="2.5" fill="#142c3d" class="cell" style="animation-delay:0.288s"/>
<rect x="400" y="140" width="11" height="11" rx="2.5" fill="#142c3d" class="cell" style="animation-delay:0.288s"/>
<rect x="400" y="154" width="11" height="11" rx="2.5" fill="#142c3d" class="cell" style="animation-delay:0.288s"/>
<rect x="400" y="168" width="11" height="11" rx="2.5" fill="#142c3d" class="cell" style="animation-delay:0.288s"/>
<rect x="400" y="182" width="11" height="11" rx="2.5" fill="#142c3d" class="cell" style="animation-delay:0.288s"/>
<rect x="400" y="196" width="11" height="11" rx="2.5" fill="#142c3d" class="cell" style="animation-delay:0.288s"/>
<rect x="414" y="112" width="11" height="11" rx="2.5" fill="#142c3d" class="cell" style="animation-delay:0.300s"/>
<rect x="414" y="126" width="11" height="11" rx="2.5" fill="#142c3d" class="cell" style="animation-delay:0.300s"/>
<rect x="414" y="140" width="11" height="11" rx="2.5" fill="#142c3d" class="cell" style="animation-delay:0.300s"/>
<rect x="414" y="154" width="11" height="11" rx="2.5" fill="#142c3d" class="cell" style="animation-delay:0.300s"/>
<rect x="414" y="168" width="11" height="11" rx="2.5" fill="#142c3d" class="cell" style="animation-delay:0.300s"/>
<rect x="414" y="182" width="11" height="11" rx="2.5" fill="#142c3d" class="cell" style="animation-delay:0.300s"/>
<rect x="414" y="196" width="11" height="11" rx="2.5" fill="#142c3d" class="cell" style="animation-delay:0.300s"/>
<rect x="428" y="112" width="11" height="11" rx="2.5" fill="#142c3d" class="cell" style="animation-delay:0.312s"/>
<rect x="428" y="126" width="11" height="11" rx="2.5" fill="#0f5257" class="cell" style="animation-delay:0.312s"/>
<rect x="428" y="140" width="11" height="11" rx="2.5" fill="#142c3d" class="cell" style="animation-delay:0.312s"/>
<rect x="428" y="154" width="11" height="11" rx="2.5" fill="#142c3d" class="cell" style="animation-delay:0.312s"/>
<rect x="428" y="168" width="11" height="11" rx="2.5" fill="#142c3d" class="cell" style="animation-delay:0.312s"/>
<rect x="428" y="182" width="11" height="11" rx="2.5" fill="#142c3d" class="cell" style="animation-delay:0.312s"/>
<rect x="428" y="196" width="11" height="11" rx="2.5" fill="#142c3d" class="cell" style="animation-delay:0.312s"/>
<rect x="442" y="112" width="11" height="11" rx="2.5" fill="#142c3d" class="cell" style="animation-delay:0.324s"/>
<rect x="442" y="126" width="11" height="11" rx="2.5" fill="#142c3d" class="cell" style="animation-delay:0.324s"/>
<rect x="442" y="140" width="11" height="11" rx="2.5" fill="#142c3d" class="cell" style="animation-delay:0.324s"/>
<rect x="442" y="154" width="11" height="11" rx="2.5" fill="#142c3d" class="cell" style="animation-delay:0.324s"/>
<rect x="442" y="168" width="11" height="11" rx="2.5" fill="#142c3d" class="cell" style="animation-delay:0.324s"/>
<rect x="442" y="182" width="11" height="11" rx="2.5" fill="#142c3d" class="cell" style="animation-delay:0.324s"/>
<rect x="442" y="196" width="11" height="11" rx="2.5" fill="#142c3d" class="cell" style="animation-delay:0.324s"/>
<rect x="456" y="112" width="11" height="11" rx="2.5" fill="#142c3d" class="cell" style="animation-delay:0.336s"/>
<rect x="456" y="126" width="11" height="11" rx="2.5" fill="#142c3d" class="cell" style="animation-delay:0.336s"/>
<rect x="456" y="140" width="11" height="11" rx="2.5" fill="#142c3d" class="cell" style="animation-delay:0.336s"/>
<rect x="456" y="154" width="11" height="11" rx="2.5" fill="#142c3d" class="cell" style="animation-delay:0.336s"/>
<rect x="456" y="168" width="11" height="11" rx="2.5" fill="#142c3d" class="cell" style="animation-delay:0.336s"/>
<rect x="456" y="182" width="11" height="11" rx="2.5" fill="#142c3d" class="cell" style="animation-delay:0.336s"/>
<rect x="456" y="196" width="11" height="11" rx="2.5" fill="#142c3d" class="cell" style="animation-delay:0.336s"/>
<rect x="470" y="112" width="11" height="11" rx="2.5" fill="#142c3d" class="cell" style="animation-delay:0.348s"/>
<rect x="470" y="126" width="11" height="11" rx="2.5" fill="#142c3d" class="cell" style="animation-delay:0.348s"/>
<rect x="470" y="140" width="11" height="11" rx="2.5" fill="#142c3d" class="cell" style="animation-delay:0.348s"/>
<rect x="470" y="154" width="11" height="11" rx="2.5" fill="#142c3d" class="cell" style="animation-delay:0.348s"/>
<rect x="470" y="168" width="11" height="11" rx="2.5" fill="#142c3d" class="cell" style="animation-delay:0.348s"/>
<rect x="470" y="182" width="11" height="11" rx="2.5" fill="#142c3d" class="cell" style="animation-delay:0.348s"/>
<rect x="470" y="196" width="11" height="11" rx="2.5" fill="#142c3d" class="cell" style="animation-delay:0.348s"/>
<rect x="484" y="112" width="11" height="11" rx="2.5" fill="#142c3d" class="cell" style="animation-delay:0.360s"/>
<rect x="484" y="126" width="11" height="11" rx="2.5" fill="#142c3d" class="cell" style="animation-delay:0.360s"/>
<rect x="484" y="140" width="11" height="11" rx="2.5" fill="#142c3d" class="cell" style="animation-delay:0.360s"/>
<rect x="484" y="154" width="11" height="11" rx="2.5" fill="#142c3d" class="cell" style="animation-delay:0.360s"/>
<rect x="484" y="168" width="11" height="11" rx="2.5" fill="#142c3d" class="cell" style="animation-delay:0.360s"/>
<rect x="484" y="182" width="11" height="11" rx="2.5" fill="#142c3d" class="cell" style="animation-delay:0.360s"/>
<rect x="484" y="196" width="11" height="11" rx="2.5" fill="#142c3d" class="cell" style="animation-delay:0.360s"/>
<rect x="498" y="112" width="11" height="11" rx="2.5" fill="#142c3d" class="cell" style="animation-delay:0.372s"/>
<rect x="498" y="126" width="11" height="11" rx="2.5" fill="#142c3d" class="cell" style="animation-delay:0.372s"/>
<rect x="498" y="140" width="11" height="11" rx="2.5" fill="#142c3d" class="cell" style="animation-delay:0.372s"/>
<rect x="498" y="154" width="11" height="11" rx="2.5" fill="#142c3d" class="cell" style="animation-delay:0.372s"/>
<rect x="498" y="168" width="11" height="11" rx="2.5" fill="#142c3d" class="cell" style="animation-delay:0.372s"/>
<rect x="498" y="182" width="11" height="11" rx="2.5" fill="#142c3d" class="cell" style="animation-delay:0.372s"/>
<rect x="498" y="196" width="11" height="11" rx="2.5" fill="#142c3d" class="cell" style="animation-delay:0.372s"/>
<rect x="512" y="112" width="11" height="11" rx="2.5" fill="#142c3d" class="cell" style="animation-delay:0.384s"/>
<rect x="512" y="126" width="11" height="11" rx="2.5" fill="#142c3d" class="cell" style="animation-delay:0.384s"/>
<rect x="512" y="140" width="11" height="11" rx="2.5" fill="#142c3d" class="cell" style="animation-delay:0.384s"/>
<rect x="512" y="154" width="11" height="11" rx="2.5" fill="#142c3d" class="cell" style="animation-delay:0.384s"/>
<rect x="512" y="168" width="11" height="11" rx="2.5" fill="#142c3d" class="cell" style="animation-delay:0.384s"/>
<rect x="512" y="182" width="11" height="11" rx="2.5" fill="#142c3d" class="cell" style="animation-delay:0.384s"/>
<rect x="512" y="196" width="11" height="11" rx="2.5" fill="#142c3d" class="cell" style="animation-delay:0.384s"/>
<rect x="526" y="112" width="11" height="11" rx="2.5" fill="#142c3d" class="cell" style="animation-delay:0.396s"/>
<rect x="526" y="126" width="11" height="11" rx="2.5" fill="#142c3d" class="cell" style="animation-delay:0.396s"/>
<rect x="526" y="140" width="11" height="11" rx="2.5" fill="#142c3d" class="cell" style="animation-delay:0.396s"/>
<rect x="526" y="154" width="11" height="11" rx="2.5" fill="#142c3d" class="cell" style="animation-delay:0.396s"/>
<rect x="526" y="168" width="11" height="11" rx="2.5" fill="#142c3d" class="cell" style="animation-delay:0.396s"/>
<rect x="526" y="182" width="11" height="11" rx="2.5" fill="#142c3d" class="cell" style="animation-delay:0.396s"/>
<rect x="526" y="196" width="11" height="11" rx="2.5" fill="#142c3d" class="cell" style="animation-delay:0.396s"/>
<rect x="540" y="112" width="11" height="11" rx="2.5" fill="#142c3d" class="cell" style="animation-delay:0.408s"/>
<rect x="540" y="126" width="11" height="11" rx="2.5" fill="#142c3d" class="cell" style="animation-delay:0.408s"/>
<rect x="540" y="140" width="11" height="11" rx="2.5" fill="#142c3d" class="cell" style="animation-delay:0.408s"/>
<rect x="540" y="154" width="11" height="11" rx="2.5" fill="#142c3d" class="cell" style="animation-delay:0.408s"/>
<rect x="540" y="168" width="11" height="11" rx="2.5" fill="#142c3d" class="cell" style="animation-delay:0.408s"/>
<rect x="540" y="182" width="11" height="11" rx="2.5" fill="#142c3d" class="cell" style="animation-delay:0.408s"/>
<rect x="540" y="196" width="11" height="11" rx="2.5" fill="#142c3d" class="cell" style="animation-delay:0.408s"/>
<rect x="554" y="112" width="11" height="11" rx="2.5" fill="#142c3d" class="cell" style="animation-delay:0.420s"/>
<rect x="554" y="126" width="11" height="11" rx="2.5" fill="#142c3d" class="cell" style="animation-delay:0.420s"/>
<rect x="554" y="140" width="11" height="11" rx="2.5" fill="#142c3d" class="cell" style="animation-delay:0.420s"/>
<rect x="554" y="154" width="11" height="11" rx="2.5" fill="#142c3d" class="cell" style="animation-delay:0.420s"/>
<rect x="554" y="168" width="11" height="11" rx="2.5" fill="#142c3d" class="cell" style="animation-delay:0.420s"/>
<rect x="554" y="182" width="11" height="11" rx="2.5" fill="#142c3d" class="cell" style="animation-delay:0.420s"/>
<rect x="554" y="196" width="11" height="11" rx="2.5" fill="#142c3d" class="cell" style="animation-delay:0.420s"/>
<rect x="568" y="112" width="11" height="11" rx="2.5" fill="#142c3d" class="cell" style="animation-delay:0.432s"/>
<rect x="568" y="126" width="11" height="11" rx="2.5" fill="#142c3d" class="cell" style="animation-delay:0.432s"/>
<rect x="568" y="140" width="11" height="11" rx="2.5" fill="#142c3d" class="cell" style="animation-delay:0.432s"/>
<rect x="568" y="154" width="11" height="11" rx="2.5" fill="#142c3d" class="cell" style="animation-delay:0.432s"/>
<rect x="568" y="168" width="11" height="11" rx="2.5" fill="#142c3d" class="cell" style="animation-delay:0.432s"/>
<rect x="568" y="182" width="11" height="11" rx="2.5" fill="#142c3d" class="cell" style="animation-delay:0.432s"/>
<rect x="568" y="196" width="11" height="11" rx="2.5" fill="#142c3d" class="cell" style="animation-delay:0.432s"/>
<rect x="582" y="112" width="11" height="11" rx="2.5" fill="#142c3d" class="cell" style="animation-delay:0.444s"/>
<rect x="582" y="126" width="11" height="11" rx="2.5" fill="#142c3d" class="cell" style="animation-delay:0.444s"/>
<rect x="582" y="140" width="11" height="11" rx="2.5" fill="#142c3d" class="cell" style="animation-delay:0.444s"/>
<rect x="582" y="154" width="11" height="11" rx="2.5" fill="#142c3d" class="cell" style="animation-delay:0.444s"/>
<rect x="582" y="168" width="11" height="11" rx="2.5" fill="#142c3d" class="cell" style="animation-delay:0.444s"/>
<rect x="582" y="182" width="11" height="11" rx="2.5" fill="#142c3d" class="cell" style="animation-delay:0.444s"/>
<rect x="582" y="196" width="11" height="11" rx="2.5" fill="#142c3d" class="cell" style="animation-delay:0.444s"/>
<rect x="596" y="112" width="11" height="11" rx="2.5" fill="#142c3d" class="cell" style="animation-delay:0.456s"/>
<rect x="596" y="126" width="11" height="11" rx="2.5" fill="#142c3d" class="cell" style="animation-delay:0.456s"/>
<rect x="596" y="140" width="11" height="11" rx="2.5" fill="#142c3d" class="cell" style="animation-delay:0.456s"/>
<rect x="596" y="154" width="11" height="11" rx="2.5" fill="#142c3d" class="cell" style="animation-delay:0.456s"/>
<rect x="596" y="168" width="11" height="11" rx="2.5" fill="#142c3d" class="cell" style="animation-delay:0.456s"/>
<rect x="596" y="182" width="11" height="11" rx="2.5" fill="#142c3d" class="cell" style="animation-delay:0.456s"/>
<rect x="596" y="196" width="11" height="11" rx="2.5" fill="#142c3d" class="cell" style="animation-delay:0.456s"/>
<rect x="610" y="112" width="11" height="11" rx="2.5" fill="#142c3d" class="cell" style="animation-delay:0.468s"/>
<rect x="610" y="126" width="11" height="11" rx="2.5" fill="#142c3d" class="cell" style="animation-delay:0.468s"/>
<rect x="610" y="140" width="11" height="11" rx="2.5" fill="#142c3d" class="cell" style="animation-delay:0.468s"/>
<rect x="610" y="154" width="11" height="11" rx="2.5" fill="#142c3d" class="cell" style="animation-delay:0.468s"/>
<rect x="610" y="168" width="11" height="11" rx="2.5" fill="#142c3d" class="cell" style="animation-delay:0.468s"/>
<rect x="610" y="182" width="11" height="11" rx="2.5" fill="#142c3d" class="cell" style="animation-delay:0.468s"/>
<rect x="610" y="196" width="11" height="11" rx="2.5" fill="#142c3d" class="cell" style="animation-delay:0.468s"/>
<rect x="624" y="112" width="11" height="11" rx="2.5" fill="#142c3d" class="cell" style="animation-delay:0.480s"/>
<rect x="624" y="126" width="11" height="11" rx="2.5" fill="#142c3d" class="cell" style="animation-delay:0.480s"/>
<rect x="624" y="140" width="11" height="11" rx="2.5" fill="#142c3d" class="cell" style="animation-delay:0.480s"/>
<rect x="624" y="154" width="11" height="11" rx="2.5" fill="#142c3d" class="cell" style="animation-delay:0.480s"/>
<rect x="624" y="168" width="11" height="11" rx="2.5" fill="#142c3d" class="cell" style="animation-delay:0.480s"/>
<rect x="624" y="182" width="11" height="11" rx="2.5" fill="#142c3d" class="cell" style="animation-delay:0.480s"/>
<rect x="624" y="196" width="11" height="11" rx="2.5" fill="#142c3d" class="cell" style="animation-delay:0.480s"/>
<rect x="638" y="112" width="11" height="11" rx="2.5" fill="#142c3d" class="cell" style="animation-delay:0.492s"/>
<rect x="638" y="126" width="11" height="11" rx="2.5" fill="#142c3d" class="cell" style="animation-delay:0.492s"/>
<rect x="638" y="140" width="11" height="11" rx="2.5" fill="#142c3d" class="cell" style="animation-delay:0.492s"/>
<rect x="638" y="154" width="11" height="11" rx="2.5" fill="#142c3d" class="cell" style="animation-delay:0.492s"/>
<rect x="638" y="168" width="11" height="11" rx="2.5" fill="#142c3d" class="cell" style="animation-delay:0.492s"/>
<rect x="638" y="182" width="11" height="11" rx="2.5" fill="#142c3d" class="cell" style="animation-delay:0.492s"/>
<rect x="638" y="196" width="11" height="11" rx="2.5" fill="#142c3d" class="cell" style="animation-delay:0.492s"/>
<rect x="652" y="112" width="11" height="11" rx="2.5" fill="#142c3d" class="cell" style="animation-delay:0.504s"/>
<rect x="652" y="126" width="11" height="11" rx="2.5" fill="#142c3d" class="cell" style="animation-delay:0.504s"/>
<rect x="652" y="140" width="11" height="11" rx="2.5" fill="#142c3d" class="cell" style="animation-delay:0.504s"/>
<rect x="652" y="154" width="11" height="11" rx="2.5" fill="#142c3d" class="cell" style="animation-delay:0.504s"/>
<rect x="652" y="168" width="11" height="11" rx="2.5" fill="#142c3d" class="cell" style="animation-delay:0.504s"/>
<rect x="652" y="182" width="11" height="11" rx="2.5" fill="#142c3d" class="cell" style="animation-delay:0.504s"/>
<rect x="652" y="196" width="11" height="11" rx="2.5" fill="#142c3d" class="cell" style="animation-delay:0.504s"/>
<rect x="666" y="112" width="11" height="11" rx="2.5" fill="#142c3d" class="cell" style="animation-delay:0.516s"/>
<rect x="666" y="126" width="11" height="11" rx="2.5" fill="#142c3d" class="cell" style="animation-delay:0.516s"/>
<rect x="666" y="140" width="11" height="11" rx="2.5" fill="#142c3d" class="cell" style="animation-delay:0.516s"/>
<rect x="666" y="154" width="11" height="11" rx="2.5" fill="#142c3d" class="cell" style="animation-delay:0.516s"/>
<rect x="666" y="168" width="11" height="11" rx="2.5" fill="#142c3d" class="cell" style="animation-delay:0.516s"/>
<rect x="666" y="182" width="11" height="11" rx="2.5" fill="#142c3d" class="cell" style="animation-delay:0.516s"/>
<rect x="666" y="196" width="11" height="11" rx="2.5" fill="#142c3d" class="cell" style="animation-delay:0.516s"/>
<rect x="680" y="112" width="11" height="11" rx="2.5" fill="#142c3d" class="cell" style="animation-delay:0.528s"/>
<rect x="680" y="126" width="11" height="11" rx="2.5" fill="#142c3d" class="cell" style="animation-delay:0.528s"/>
<rect x="680" y="140" width="11" height="11" rx="2.5" fill="#142c3d" class="cell" style="animation-delay:0.528s"/>
<rect x="680" y="154" width="11" height="11" rx="2.5" fill="#142c3d" class="cell" style="animation-delay:0.528s"/>
<rect x="680" y="168" width="11" height="11" rx="2.5" fill="#142c3d" class="cell" style="animation-delay:0.528s"/>
<rect x="680" y="182" width="11" height="11" rx="2.5" fill="#142c3d" class="cell" style="animation-delay:0.528s"/>
<rect x="680" y="196" width="11" height="11" rx="2.5" fill="#142c3d" class="cell" style="animation-delay:0.528s"/>
<rect x="694" y="112" width="11" height="11" rx="2.5" fill="#142c3d" class="cell" style="animation-delay:0.540s"/>
<rect x="694" y="126" width="11" height="11" rx="2.5" fill="#142c3d" class="cell" style="animation-delay:0.540s"/>
<rect x="694" y="140" width="11" height="11" rx="2.5" fill="#142c3d" class="cell" style="animation-delay:0.540s"/>
<rect x="694" y="154" width="11" height="11" rx="2.5" fill="#142c3d" class="cell" style="animation-delay:0.540s"/>
<rect x="694" y="168" width="11" height="11" rx="2.5" fill="#142c3d" class="cell" style="animation-delay:0.540s"/>
<rect x="694" y="182" width="11" height="11" rx="2.5" fill="#142c3d" class="cell" style="animation-delay:0.540s"/>
<rect x="694" y="196" width="11" height="11" rx="2.5" fill="#142c3d" class="cell" style="animation-delay:0.540s"/>
<rect x="708" y="112" width="11" height="11" rx="2.5" fill="#142c3d" class="cell" style="animation-delay:0.552s"/>
<rect x="708" y="126" width="11" height="11" rx="2.5" fill="#142c3d" class="cell" style="animation-delay:0.552s"/>
<rect x="708" y="140" width="11" height="11" rx="2.5" fill="#142c3d" class="cell" style="animation-delay:0.552s"/>
<rect x="708" y="154" width="11" height="11" rx="2.5" fill="#142c3d" class="cell" style="animation-delay:0.552s"/>
<rect x="708" y="168" width="11" height="11" rx="2.5" fill="#142c3d" class="cell" style="animation-delay:0.552s"/>
<rect x="708" y="182" width="11" height="11" rx="2.5" fill="#142c3d" class="cell" style="animation-delay:0.552s"/>
<rect x="708" y="196" width="11" height="11" rx="2.5" fill="#142c3d" class="cell" style="animation-delay:0.552s"/>
<rect x="722" y="112" width="11" height="11" rx="2.5" fill="#142c3d" class="cell" style="animation-delay:0.564s"/>
<rect x="722" y="126" width="11" height="11" rx="2.5" fill="#142c3d" class="cell" style="animation-delay:0.564s"/>
<rect x="722" y="140" width="11" height="11" rx="2.5" fill="#142c3d" class="cell" style="animation-delay:0.564s"/>
<rect x="722" y="154" width="11" height="11" rx="2.5" fill="#142c3d" class="cell" style="animation-delay:0.564s"/>
<rect x="722" y="168" width="11" height="11" rx="2.5" fill="#142c3d" class="cell" style="animation-delay:0.564s"/>
<rect x="722" y="182" width="11" height="11" rx="2.5" fill="#142c3d" class="cell" style="animation-delay:0.564s"/>
<rect x="722" y="196" width="11" height="11" rx="2.5" fill="#142c3d" class="cell" style="animation-delay:0.564s"/>
<rect x="736" y="112" width="11" height="11" rx="2.5" fill="#142c3d" class="cell" style="animation-delay:0.576s"/>
<rect x="736" y="126" width="11" height="11" rx="2.5" fill="#142c3d" class="cell" style="animation-delay:0.576s"/>
<rect x="736" y="140" width="11" height="11" rx="2.5" fill="#142c3d" class="cell" style="animation-delay:0.576s"/>
<rect x="736" y="154" width="11" height="11" rx="2.5" fill="#142c3d" class="cell" style="animation-delay:0.576s"/>
<rect x="736" y="168" width="11" height="11" rx="2.5" fill="#142c3d" class="cell" style="animation-delay:0.576s"/>
<rect x="736" y="182" width="11" height="11" rx="2.5" fill="#142c3d" class="cell" style="animation-delay:0.576s"/>
<rect x="736" y="196" width="11" height="11" rx="2.5" fill="#142c3d" class="cell" style="animation-delay:0.576s"/>
<rect x="750" y="112" width="11" height="11" rx="2.5" fill="#142c3d" class="cell" style="animation-delay:0.588s"/>
<rect x="750" y="126" width="11" height="11" rx="2.5" fill="#142c3d" class="cell" style="animation-delay:0.588s"/>
<rect x="750" y="140" width="11" height="11" rx="2.5" fill="#142c3d" class="cell" style="animation-delay:0.588s"/>
<rect x="750" y="154" width="11" height="11" rx="2.5" fill="#142c3d" class="cell" style="animation-delay:0.588s"/>
<rect x="750" y="168" width="11" height="11" rx="2.5" fill="#142c3d" class="cell" style="animation-delay:0.588s"/>
<rect x="750" y="182" width="11" height="11" rx="2.5" fill="#142c3d" class="cell" style="animation-delay:0.588s"/>
<rect x="750" y="196" width="11" height="11" rx="2.5" fill="#142c3d" class="cell" style="animation-delay:0.588s"/>
<rect x="764" y="112" width="11" height="11" rx="2.5" fill="#142c3d" class="cell" style="animation-delay:0.600s"/>
<rect x="764" y="126" width="11" height="11" rx="2.5" fill="#142c3d" class="cell" style="animation-delay:0.600s"/>
<rect x="764" y="140" width="11" height="11" rx="2.5" fill="#142c3d" class="cell" style="animation-delay:0.600s"/>
<rect x="764" y="154" width="11" height="11" rx="2.5" fill="#142c3d" class="cell" style="animation-delay:0.600s"/>
<rect x="764" y="168" width="11" height="11" rx="2.5" fill="#142c3d" class="cell" style="animation-delay:0.600s"/>
<rect x="764" y="182" width="11" height="11" rx="2.5" fill="#142c3d" class="cell" style="animation-delay:0.600s"/>
<rect x="764" y="196" width="11" height="11" rx="2.5" fill="#142c3d" class="cell" style="animation-delay:0.600s"/>
<rect x="778" y="112" width="11" height="11" rx="2.5" fill="#142c3d" class="cell" style="animation-delay:0.612s"/>
<rect x="778" y="126" width="11" height="11" rx="2.5" fill="#142c3d" class="cell" style="animation-delay:0.612s"/>
<rect x="778" y="140" width="11" height="11" rx="2.5" fill="#142c3d" class="cell" style="animation-delay:0.612s"/>
<rect x="778" y="154" width="11" height="11" rx="2.5" fill="#142c3d" class="cell" style="animation-delay:0.612s"/>
<rect x="778" y="168" width="11" height="11" rx="2.5" fill="#142c3d" class="cell" style="animation-delay:0.612s"/>
<rect x="778" y="182" width="11" height="11" rx="2.5" fill="#142c3d" class="cell" style="animation-delay:0.612s"/>
<rect x="778" y="196" width="11" height="11" rx="2.5" fill="#142c3d" class="cell" style="animation-delay:0.612s"/>
<rect x="792" y="112" width="11" height="11" rx="2.5" fill="#0f5257" class="cell" style="animation-delay:0.624s"/>
</svg>