<svg width="880" height="250" viewBox="0 0 880 250" xmlns="http://www.w3.org/2000/svg" role="img" aria-label="GitHub stats for wSocrate">
<style>
      .num { font: 700 30px ui-monospace, 'Cascadia Code', Consolas, monospace; }
      .lbl { font: 500 12px ui-monospace, 'Cascadia Code', Consolas, monospace; }
      .cell { animation: pop .5s ease-out backwards; }
      @keyframes pop { from { opacity: 0 } to { opacity: 1 } }
    </style>
<defs><linearGradient id="bg" x1="0" y1="0" x2="0" y2="1">
      <stop offset="0" stop-color="#0d1b2a"/><stop offset="1" stop-color="#0f2438"/>
    </linearGradient></defs>
<rect width="880" height="250" rx="12" fill="url(#bg)"/>
<rect x="0.5" y="0.5" width="879" height="249" rx="12" fill="none" stroke="#24435c"/>
<text x="64" y="62" class="num" fill="#f2ede3">1,329</text>
<text x="64" y="84" class="lbl" fill="#8ea8ba">contributions this year</text>
<text x="259" y="62" class="num" fill="#f2ede3">9</text>
<text x="259" y="84" class="lbl" fill="#8ea8ba">current daily streak</text>
<text x="454" y="62" class="num" fill="#f2ede3">11</text>
<text x="454" y="84" class="lbl" fill="#8ea8ba">best daily streak</text>
<text x="649" y="62" class="num" fill="#f2ede3">4</text>
<text x="649" y="84" class="lbl" fill="#8ea8ba">repos contributed to</text>
<rect x="64" y="203" width="41" height="3" rx="3" fill="#142c3d" class="cell" style="animation-delay:0.000s"/>
<rect x="111" y="203" width="41" height="3" rx="3" fill="#142c3d" class="cell" style="animation-delay:0.030s"/>
<rect x="158" y="203" width="41" height="3" rx="3" fill="#142c3d" class="cell" style="animation-delay:0.060s"/>
<rect x="205" y="203" width="41" height="3" rx="3" fill="#142c3d" class="cell" style="animation-delay:0.090s"/>
<rect x="252" y="203" width="41" height="3" rx="3" fill="#142c3d" class="cell" style="animation-delay:0.120s"/>
<rect x="299" y="121" width="41" height="85" rx="3" fill="#7ce3c3" class="cell" style="animation-delay:0.150s"/>
<rect x="346" y="162" width="41" height="44" rx="3" fill="#0e7c6b" class="cell" style="animation-delay:0.180s"/>
<rect x="393" y="154" width="41" height="52" rx="3" fill="#0e7c6b" class="cell" style="animation-delay:0.210s"/>
<rect x="440" y="143" width="41" height="63" rx="3" fill="#16b89a" class="cell" style="animation-delay:0.240s"/>
<rect x="487" y="145" width="41" height="61" rx="3" fill="#16b89a" class="cell" style="animation-delay:0.270s"/>
<rect x="534" y="190" width="41" height="16" rx="3" fill="#0f5257" class="cell" style="animation-delay:0.300s"/>
<rect x="581" y="114" width="41" height="92" rx="3" fill="#ff8f6b" class="cell" style="animation-delay:0.330s"/>
<rect x="628" y="181" width="41" height="25" rx="3" fill="#0f5257" class="cell" style="animation-delay:0.360s"/>
<rect x="675" y="171" width="41" height="35" rx="3" fill="#0f5257" class="cell" style="animation-delay:0.390s"/>
<rect x="722" y="139" width="41" height="67" rx="3" fill="#16b89a" class="cell" style="animation-delay:0.420s"/>
<rect x="769" y="165" width="41" height="41" rx="3" fill="#0e7c6b" class="cell" style="animation-delay:0.450s"/>
<rect x="64" y="210" width="746" height="2" fill="#24435c" opacity=".7"/>
<text x="64" y="234" class="lbl" fill="#8ea8ba">last 4 months, week by week</text>
<text x="816" y="234" text-anchor="end" class="lbl" fill="#8ea8ba">52 profile views</text>
</svg>